<?xml version="1.0" encoding="UTF-8"?>
<svg width="8px" height="20px" viewBox="0 0 8 20" version="1.1" xmlns="http://www.w3.org/2000/svg" xmlns:xlink="http://www.w3.org/1999/xlink">
    <!-- Generator: Sketch 52 (66869) - http://www.bohemiancoding.com/sketch -->
    <title>Combined Shape</title>
    <desc>Created with Sketch.</desc>
    <g id="Page-1" stroke="none" stroke-width="1" fill="none" fill-rule="evenodd">
        <g id="时间拖动控件" transform="translate(-620.000000, -395.000000)" fill="#828282">
            <path d="M623,395 L628,395 L628,415 L623,415 C621.343146,415 620,413.656854 620,412 L620,398 C620,396.343146 621.343146,395 623,395 Z M622.666652,409.666667 C622.29847,409.666667 622,409.965144 622,410.333333 C622,410.701523 622.29847,411 622.666652,411 C623.034834,411 623.333304,410.701523 623.333304,410.333333 C623.333304,409.965143 623.034834,409.666667 622.666652,409.666667 Z M625.33326,409.666667 C624.965078,409.666667 624.666608,409.965144 624.666608,410.333333 C624.666608,410.701523 624.965078,411 625.33326,411 C625.701441,411 625.999912,410.701523 625.999912,410.333333 C625.999912,409.965143 625.701441,409.666667 625.33326,409.666667 Z M622.666652,407 C622.298505,407.000049 622.000088,407.298511 622.000088,407.666667 C622.000088,408.034822 622.298505,408.333285 622.666652,408.333333 C622.904845,408.333365 623.124958,408.206306 623.244063,408.000026 C623.363169,407.793745 623.363169,407.539588 623.244063,407.333308 C623.124958,407.127027 622.904845,406.999968 622.666652,407 Z M625.33326,407 C624.965112,407.000049 624.666696,407.298511 624.666696,407.666667 C624.666696,408.034822 624.965112,408.333285 625.33326,408.333333 C625.571453,408.333365 625.791565,408.206306 625.910671,408.000026 C626.029776,407.793745 626.029776,407.539588 625.910671,407.333308 C625.791565,407.127027 625.571453,406.999968 625.33326,407 Z M622.666652,404.333333 C622.29847,404.333333 622,404.63181 622,405 C622,405.36819 622.29847,405.666667 622.666652,405.666667 C622.904824,405.666667 623.124904,405.539601 623.243989,405.333333 C623.363075,405.127066 623.363075,404.872934 623.243989,404.666667 C623.124904,404.460399 622.904824,404.333333 622.666652,404.333333 Z M625.33326,404.333333 C624.965078,404.333333 624.666608,404.63181 624.666608,405 C624.666608,405.36819 624.965078,405.666667 625.33326,405.666667 C625.571431,405.666667 625.791511,405.539601 625.910597,405.333333 C626.029683,405.127066 626.029683,404.872934 625.910597,404.666667 C625.791511,404.460399 625.571431,404.333333 625.33326,404.333333 Z M622.666652,401.666667 C622.298505,401.666715 622.000088,401.965178 622.000088,402.333333 C622.000088,402.701489 622.298505,402.999951 622.666652,403 C622.904845,403.000032 623.124958,402.872973 623.244063,402.666692 C623.363169,402.460412 623.363169,402.206255 623.244063,401.999974 C623.124958,401.793694 622.904845,401.666635 622.666652,401.666667 Z M625.33326,401.666667 C624.965112,401.666715 624.666696,401.965178 624.666696,402.333333 C624.666696,402.701489 624.965112,402.999951 625.33326,403 C625.571453,403.000032 625.791565,402.872973 625.910671,402.666692 C626.029776,402.460412 626.029776,402.206255 625.910671,401.999974 C625.791565,401.793694 625.571453,401.666635 625.33326,401.666667 Z M622.666652,399 C622.29847,399 622,399.298477 622,399.666667 C622,400.034856 622.29847,400.333333 622.666652,400.333333 C622.904824,400.333333 623.124904,400.206267 623.243989,400 C623.363075,399.793733 623.363075,399.539601 623.243989,399.333333 C623.124904,399.127066 622.904824,399 622.666652,399 Z M625.33326,399 C624.965078,399 624.666608,399.298477 624.666608,399.666667 C624.666608,400.034856 624.965078,400.333333 625.33326,400.333333 C625.571431,400.333333 625.791511,400.206267 625.910597,400 C626.029683,399.793733 626.029683,399.539601 625.910597,399.333333 C625.791511,399.127066 625.571431,399 625.33326,399 Z" id="Combined-Shape"></path>
        </g>
    </g>
</svg>